# xmcd CD database file
#
# Track frame offsets:
#	150
#	15000
#	32400
#	46125
#	62025
#	76125
#	93750
#	113775
#	130125
#	140325
#	156300
#	174150
#
# Disc length: 2512 seconds
#
# Revision: 0
# Processed by: cddbd v1.5.2PL0 Copyright (c) Steve Scherf et al.
# Submitted via: CDex 1.79
#
DISCID=7f09ce0c
DTITLE=A GENTLE CONVERSATION - THE LIVING ROOM SESSIONS
DYEAR=2013
DGENRE=Blues
TTITLE0=A GENTLE CONVERSATION - MERCY
TTITLE1=A GENTLE CONVERSATION - FRAGILE
TTITLE2=A GENTLE CONVERSATION - DRIVE
TTITLE3=A GENTLE CONVERSATION - THE DAYS OF WINE AND ROSES
TTITLE4=A GENTLE CONVERSATION - ROLLING IN THE DEEP
TTITLE5=A GENTLE CONVERSATION - BARBIE GIRL
TTITLE6=A GENTLE CONVERSATION - IF YOU DONT KNOW ME BY NOW
TTITLE7=A GENTLE CONVERSATION - BILLIE JEAN
TTITLE8=A GENTLE CONVERSATION - SUDDEN SAMBA
TTITLE9=A GENTLE CONVERSATION - BEAUTIFULL LOVE
TTITLE10=A GENTLE CONVERSATION - TOO CLOSE
TTITLE11=A GENTLE CONVERSATION - MAD WORLD
EXTD=YEAR: 2013
EXTT0=
EXTT1=
EXTT2=
EXTT3=
EXTT4=
EXTT5=
EXTT6=
EXTT7=
EXTT8=
EXTT9=
EXTT10=
EXTT11=
PLAYORDER=
